# Exported from Wings 3D 2.2.4
mtllib CORRIDOR1.mtl
o Cube1
#148 vertices, 130 faces
v -0.30730400 -1.52881278 -0.30730400
v -0.30730400 -1.52881278 0.30730400
v 0.30730400 -1.52881278 -0.30730400
v 0.30730400 -1.52881278 0.30730400
v -5.50431496 -1.52881278 -5.50431496
v -5.50431496 -1.52881278 5.50431496
v 5.50431496 -1.52881278 -5.50431496
v 5.50431496 -1.52881278 5.50431496
v -63.05420257 -1.49849362 4.89891404
v -63.05420257 -1.49849362 -4.89891404
v 4.89891404 -1.49849362 63.05420257
v 63.05420257 -1.49849362 -4.89891404
v -4.89891404 -1.49849362 -63.05420257
v -4.89891404 -1.49849362 63.05420257
v 63.05420257 -1.49849362 4.89891404
v 4.89891404 -1.49849362 -63.05420257
v 63.05678339 -3.52973899 -4.89891404
v 63.05678339 -3.52973899 4.89891404
v 5.50431496 -3.56006143 5.50431496
v 4.89891404 -3.52973899 63.05678339
v -4.89891404 -3.52973899 63.05678339
v -5.50431496 -3.56006143 5.50431496
v -63.05678339 -3.52973899 4.89891404
v -63.05678339 -3.52973899 -4.89891404
v -5.50431496 -3.56006143 -5.50431496
v -4.89891404 -3.52973899 -63.05678339
v 4.89891404 -3.52973899 -63.05678339
v 5.50431496 -3.56006143 -5.50431496
v 8.01360073 -1.52881278 8.01360073
v 8.01360073 -3.56006143 8.01360073
v 7.45247035 -1.49855193 63.05420265
v 7.45247035 -3.52979730 63.05678346
v 63.05678346 -3.52979730 7.45247035
v 63.05420265 -1.49855193 7.45247035
v -8.01360073 -1.52881278 8.01360073
v -8.01360073 -3.56006143 8.01360073
v -63.05420265 -1.49855193 7.45247035
v -63.05678346 -3.52979730 7.45247035
v -7.45247035 -3.52979730 63.05678346
v -7.45247035 -1.49855193 63.05420265
v -8.01360073 -1.52881278 -8.01360073
v -8.01360073 -3.56006143 -8.01360073
v -7.45247035 -1.49855193 -63.05420265
v -7.45247035 -3.52979730 -63.05678346
v -63.05678346 -3.52979730 -7.45247035
v -63.05420265 -1.49855193 -7.45247035
v 8.01360073 -1.52881278 -8.01360073
v 8.01360073 -3.56006143 -8.01360073
v 63.05420265 -1.49855193 -7.45247035
v 63.05678346 -3.52979730 -7.45247035
v 7.45247035 -3.52979730 -63.05678346
v 7.45247035 -1.49855193 -63.05420265
v 9.23421241 3.91557545 9.23421241
v 10.95558244 3.91557545 10.95558244
v 63.04727418 3.95454635 10.57064700
v 63.04727413 3.95458635 8.81890738
v 8.81890738 3.95458635 63.04727413
v 10.57064700 3.95454635 63.04727418
v -9.23421241 3.91557545 9.23421241
v -10.95558244 3.91557545 10.95558244
v -63.04727413 3.95458635 8.81890738
v -63.04727418 3.95454635 10.57064700
v -10.57064700 3.95454635 63.04727418
v -8.81890738 3.95458635 63.04727413
v -9.23421241 3.91557545 -9.23421241
v -10.95558244 3.91557545 -10.95558244
v -8.81890738 3.95458635 -63.04727413
v -10.57064700 3.95454635 -63.04727418
v -63.04727418 3.95454635 -10.57064700
v -63.04727413 3.95458635 -8.81890738
v 9.23421241 3.91557545 -9.23421241
v 10.95558244 3.91557545 -10.95558244
v 63.04727413 3.95458635 -8.81890738
v 63.04727418 3.95454635 -10.57064700
v 10.57064700 3.95454635 -63.04727418
v 8.81890738 3.95458635 -63.04727413
v 9.23421241 12.21979683 9.23421241
v 10.95558244 12.21979683 10.95558244
v 8.81890738 12.25879432 63.03672316
v 10.57064700 12.25875433 63.03672321
v 63.03672321 12.25875433 10.57064700
v 63.03672316 12.25879432 8.81890738
v -9.23421241 12.21979683 9.23421241
v -10.95558244 12.21979683 10.95558244
v -10.57064700 12.25875433 63.03672321
v -8.81890738 12.25879432 63.03672316
v -63.03672316 12.25879432 8.81890738
v -63.03672321 12.25875433 10.57064700
v -9.23421241 12.21979683 -9.23421241
v -10.95558244 12.21979683 -10.95558244
v -63.03672321 12.25875433 -10.57064700
v -63.03672316 12.25879432 -8.81890738
v -8.81890738 12.25879432 -63.03672316
v -10.57064700 12.25875433 -63.03672321
v 9.23421241 12.21979683 -9.23421241
v 10.95558244 12.21979683 -10.95558244
v 63.03672316 12.25879432 -8.81890738
v 63.03672321 12.25875433 -10.57064700
v 10.57064700 12.25875433 -63.03672321
v 8.81890738 12.25879432 -63.03672316
v 4.96426382 18.55119213 4.96426382
v 7.58763176 18.55119213 7.58763176
v 4.33133895 18.58021913 63.02869143
v 7.00099014 18.58015817 63.02869151
v 63.02869151 18.58015817 7.00099014
v 63.02869143 18.58021913 4.33133895
v -4.96426382 18.55119213 4.96426382
v -7.58763176 18.55119213 7.58763176
v -7.00099014 18.58015817 63.02869151
v -4.33133895 18.58021913 63.02869143
v -63.02869143 18.58021913 4.33133895
v -63.02869151 18.58015817 7.00099014
v -4.96426382 18.55119213 -4.96426382
v -7.58763176 18.55119213 -7.58763176
v -4.33133895 18.58021913 -63.02869143
v -7.00099014 18.58015817 -63.02869151
v -63.02869151 18.58015817 -7.00099014
v -63.02869143 18.58021913 -4.33133895
v 4.96426382 18.55119213 -4.96426382
v 7.58763176 18.55119213 -7.58763176
v 63.02869143 18.58021913 -4.33133895
v 63.02869151 18.58015817 -7.00099014
v 7.00099014 18.58015817 -63.02869151
v 4.33133895 18.58021913 -63.02869143
v -22.34781363 -1.52881278 -5.20161450
v -22.34781363 -1.52881278 5.20161450
v -5.20161450 -1.52881278 22.34781363
v 5.20161450 -1.52881278 22.34781363
v 22.34781363 -1.52881278 5.20161450
v 22.34781363 -1.52881278 -5.20161450
v 5.20161450 -1.52881278 -22.34781363
v -5.20161450 -1.52881278 -22.34781363
v -13.92606429 -1.52881278 -5.35296473
v -13.92606429 -1.52881278 5.35296473
v -5.35296473 -1.52881278 13.92606429
v 5.35296473 -1.52881278 13.92606429
v 13.92606429 -1.52881278 5.35296473
v 13.92606429 -1.52881278 -5.35296473
v 5.35296473 -1.52881278 -13.92606429
v -5.35296473 -1.52881278 -13.92606429
v -9.71518962 -1.52881278 -5.42863984
v -9.71518962 -1.52881278 5.42863984
v -5.42863984 -1.52881278 9.71518962
v 5.42863984 -1.52881278 9.71518962
v 9.71518962 -1.52881278 5.42863984
v 9.71518962 -1.52881278 -5.42863984
v 5.42863984 -1.52881278 -9.71518962
v -5.42863984 -1.52881278 -9.71518962
vt -17.00200883 2.03285419
vt -16.95098835 0.71842885
vt -16.56839549 2.96913736
vt -16.51206986 -7.4673837e-2
vt -15.76825236 2.84528380
vt -15.62642938 6.2664036e-2
vt -15.37508209 1.93974671
vt -15.33894813 0.83276059
vt -11.78533488 0.94564539
vt -11.77524375 9.3306321e-2
vt -10.14931746 -7.2952363e-2
vt -9.96769054 2.80531220
vt -9.92810093 -0.22361005
vt -9.82286341 7.1354625e-2
vt -8.84140683 -7.3019019e-2
vt -8.63403922 7.5089360e-2
vt -8.44266828 -2.16988020
vt -8.34126773 0.98747369
vt -8.33499371 8.2585089e-2
vt -8.28115244 5.15033774
vt -8.18740842 -7.3052349e-2
vt -8.18261103 2.02341859
vt -8.17399117 0.71632841
vt -8.04204933 7.6949118e-2
vt -7.94278299 1.92864246
vt -7.93656588 0.83495333
vt -7.64409213 -0.38418150
vt -7.62890909 1.00385617
vt -7.62339738 7.2629719e-2
vt -7.58358967 -0.21417050
vt -7.55737020 -0.14049422
vt -7.53338127 -7.3085681e-2
vt -7.50875949 1.77574533
vt -7.50571883 1.03461372
vt -7.45700632 2.95881630
vt -7.45166547 7.8803831e-2
vt -7.41437912 0.12917390
vt -7.38917247 2.81997073
vt -7.37974582 0.17595998
vt -7.31738093 0.26020862
vt -7.27271731 1.01204770
vt -7.26760679 6.7652140e-2
vt -7.14373281 0.55062532
vt -7.09609620 2.34237602
vt -6.91651722 1.02023942
vt -6.91191145 1.38723502
vt -6.91182126 6.2674632e-2
vt -6.90730086 1.75461445
vt -6.90363841 -0.30288145
vt -6.89806520 2.49052722
vt -6.89546410 -0.66805659
vt -6.88976846 6.07011070
vt -6.87914100 -1.39726641
vt -6.83676092 -4.90175101
vt -6.47491784 0.56983421
vt -6.47468914 0.51637343
vt -6.42295569 0.57006750
vt -6.42273095 0.51660668
vt -6.29611565 2.34156052
vt -6.24521837 0.55153663
vt -6.10843704 1.21026953
vt -6.10576440 0.33619567
vt -6.05737284 0.26190156
vt -6.05477040 6.07388885
vt -6.01611252 2.49449763
vt -6.01471698 -4.89808918
vt -6.00206129 -1.39333975
vt -6.00063535 1.75869184
vt -5.99290890 1.39136573
vt -5.99192354 -0.66400726
vt -5.99091835 0.17795863
vt -5.98684673 -0.29877059
vt -5.98519052 1.02442334
vt -5.98176462 6.6847150e-2
vt -5.98115045 2.81777286
vt -5.95402235 0.13135293
vt -5.91430669 8.1185516e-2
vt -5.90700865 2.95615284
vt -5.88517178 1.03536686
vt -5.88352717 1.77513413
vt -5.82518359 -7.0145231e-2
vt -5.79786796 -0.13733098
vt -5.76801612 -0.21075482
vt -5.69914630 -0.38014760
vt -5.62892865 1.01943224
vt -5.62602899 7.5016829e-2
vt -5.56056065 1.16936644
vt -5.55840037 0.36937885
vt -5.43517292 0.83668159
vt -5.43094905 1.92726279
vt -5.32671934 8.1158616e-2
vt -5.27267185 1.01444121
vt -5.27028506 8.3186697e-2
vt -5.18644837 0.71879377
vt -5.18016233 2.02144731
vt -5.17471201 -6.7870327e-2
vt -4.98495851 5.13649087
vt -4.81468738 -2.15502037
vt -4.73910880 8.1131716e-2
vt -4.56017343 1.00445936
vt -4.55877235 9.9527006e-2
vt -4.52619176 -6.5602246e-2
vt -3.56381814 8.1077911e-2
vt -3.34903639 -0.21119526
vt -3.31416123 2.79506695
vt -3.23497019 -6.1086436e-2
vt -1.11842705 0.14111963
vt -1.11556485 0.99357501
vt -0.68546173 1.40000847
vt -0.68457643 0.18226769
vt -0.43563870 1.20602627
vt -0.43508835 0.33220465
vt -0.36584430 1.16375352
vt -0.36537887 0.36715593
vt -0.18670906 1.07745074
vt -0.18639131 0.44396986
vt 1.16019916 0.44413598
vt 1.16049250 1.07724602
vt 1.40743789 0.36743379
vt 1.40789456 1.16341748
vt 1.50944947 0.33253894
vt 1.51000856 1.20562193
vt 1.80414792 0.84454875
vt 1.83696748 1.93015683
vt 1.90276229 0.18288100
vt 1.90373434 1.39925221
vt 2.08410193 9.0170477e-2
vt 2.21581296 2.81696413
vt 2.93987385 -4.1492678e-2
vt 2.98815385 2.93564919
vt 3.36103856 0.73497753
vt 3.40753039 2.01937065
vt 6.56983504 0.37126373
vt 6.57196497 1.16704355
vt 7.14199965 0.33844462
vt 7.14465083 1.20749771
vn 0.0000000e+0 1.00000000 0.0000000e+0
vn 0.0000000e+0 1.00000000 0.0000000e+0
vn 0.0000000e+0 1.00000000 0.0000000e+0
vn 0.0000000e+0 1.00000000 0.0000000e+0
vn 0.15502263 0.97567206 0.15502263
vn 0.15502263 0.97567206 -0.15502263
vn -0.15502263 0.97567206 0.15502263
vn -0.15502263 0.97567206 -0.15502263
vn -0.85906916 0.45553606 -0.23342466
vn -0.85906916 0.45553606 0.23342466
vn -0.23342466 0.45553606 0.85906916
vn 0.85906916 0.45553606 0.23342466
vn 0.23342466 0.45553606 -0.85906916
vn 0.23342466 0.45553606 0.85906916
vn 0.85906916 0.45553606 -0.23342466
vn -0.23342466 0.45553606 -0.85906916
vn 0.70765041 -0.70656273 9.7908312e-5
vn 0.70765041 -0.70656273 -9.7908312e-5
vn 8.6144824e-5 -0.99999999 8.6144824e-5
vn -9.7908312e-5 -0.70656273 0.70765041
vn 9.7908312e-5 -0.70656273 0.70765041
vn -8.6144824e-5 -0.99999999 8.6144824e-5
vn -0.70765041 -0.70656273 -9.7908312e-5
vn -0.70765041 -0.70656273 9.7908312e-5
vn -8.6144824e-5 -0.99999999 -8.6144824e-5
vn 9.7908312e-5 -0.70656273 -0.70765041
vn -9.7908312e-5 -0.70656273 -0.70765041
vn 8.6144824e-5 -0.99999999 -8.6144824e-5
vn 0.66431676 -0.34258790 0.66431676
vn 0.41106609 -0.81366415 0.41106609
vn 0.66991782 -0.17350953 0.72187572
vn 0.57540224 -0.57485631 0.58176669
vn 0.58176669 -0.57485631 0.57540224
vn 0.72187572 -0.17350953 0.66991782
vn -0.66431676 -0.34258790 0.66431676
vn -0.41106609 -0.81366415 0.41106609
vn -0.72187572 -0.17350953 0.66991782
vn -0.58176669 -0.57485631 0.57540224
vn -0.57540224 -0.57485631 0.58176669
vn -0.66991782 -0.17350953 0.72187572
vn -0.66431676 -0.34258790 -0.66431676
vn -0.41106609 -0.81366415 -0.41106609
vn -0.66991782 -0.17350953 -0.72187572
vn -0.57540224 -0.57485631 -0.58176669
vn -0.58176669 -0.57485631 -0.57540224
vn -0.72187572 -0.17350953 -0.66991782
vn 0.66431676 -0.34258790 -0.66431676
vn 0.41106609 -0.81366415 -0.41106609
vn 0.72187572 -0.17350953 -0.66991782
vn 0.58176669 -0.57485631 -0.57540224
vn 0.57540224 -0.57485631 -0.58176669
vn 0.66991782 -0.17350953 -0.72187572
vn -0.64469987 0.41076047 -0.64469987
vn 0.66420167 -0.34303393 0.66420167
vn 0.72139055 -0.17363479 0.67040781
vn 0.72143094 0.21266543 -0.65902262
vn -0.65902262 0.21266543 0.72143094
vn 0.67040781 -0.17363479 0.72139055
vn 0.64469987 0.41076047 -0.64469987
vn -0.66420167 -0.34303393 0.66420167
vn -0.72143094 0.21266543 -0.65902262
vn -0.72139055 -0.17363479 0.67040781
vn -0.67040781 -0.17363479 0.72139055
vn 0.65902262 0.21266543 0.72143094
vn 0.64469987 0.41076047 0.64469987
vn -0.66420167 -0.34303393 -0.66420167
vn 0.65902262 0.21266543 -0.72143094
vn -0.67040781 -0.17363479 -0.72139055
vn -0.72139055 -0.17363479 -0.67040781
vn -0.72143094 0.21266543 0.65902262
vn -0.64469987 0.41076047 0.64469987
vn 0.66420167 -0.34303393 -0.66420167
vn 0.72143094 0.21266543 0.65902262
vn 0.72139055 -0.17363479 -0.67040781
vn 0.67040781 -0.17363479 -0.72139055
vn -0.65902262 0.21266543 -0.72143094
vn -0.64731323 -0.40245640 -0.64731323
vn 0.66515294 0.33932749 0.66515294
vn -0.66147319 -0.20640812 0.72100548
vn 0.67107050 0.17345095 0.72081838
vn 0.72081838 0.17345095 0.67107050
vn 0.72100548 -0.20640812 -0.66147319
vn 0.64731323 -0.40245640 -0.64731323
vn -0.66515294 0.33932749 0.66515294
vn -0.67107050 0.17345095 0.72081838
vn 0.66147319 -0.20640812 0.72100548
vn -0.72100548 -0.20640812 -0.66147319
vn -0.72081838 0.17345095 0.67107050
vn 0.64731323 -0.40245640 0.64731323
vn -0.66515294 0.33932749 -0.66515294
vn -0.72081838 0.17345095 -0.67107050
vn -0.72100548 -0.20640812 0.66147319
vn 0.66147319 -0.20640812 -0.72100548
vn -0.67107050 0.17345095 -0.72081838
vn -0.64731323 -0.40245640 0.64731323
vn 0.66515294 0.33932749 -0.66515294
vn 0.72100548 -0.20640812 0.66147319
vn 0.72081838 0.17345095 -0.67107050
vn 0.67107050 0.17345095 -0.72081838
vn -0.66147319 -0.20640812 -0.72100548
vn -0.57043629 0.59093560 -0.57043629
vn 0.27457273 0.92153113 0.27457273
vn -0.60454922 0.31706958 0.73074422
vn 0.43904130 0.74337193 0.50461958
vn 0.50461958 0.74337193 0.43904130
vn 0.73074422 0.31706958 -0.60454922
vn 0.57043629 0.59093560 -0.57043629
vn -0.27457273 0.92153113 0.27457273
vn -0.43904130 0.74337193 0.50461958
vn 0.60454922 0.31706958 0.73074422
vn -0.73074422 0.31706958 -0.60454922
vn -0.50461958 0.74337193 0.43904130
vn 0.57043629 0.59093560 0.57043629
vn -0.27457273 0.92153113 -0.27457273
vn 0.60454922 0.31706958 -0.73074422
vn -0.43904130 0.74337193 -0.50461958
vn -0.50461958 0.74337193 -0.43904130
vn -0.73074422 0.31706958 0.60454922
vn -0.57043629 0.59093560 0.57043629
vn 0.27457273 0.92153113 -0.27457273
vn 0.73074422 0.31706958 0.60454922
vn 0.50461958 0.74337193 -0.43904130
vn 0.43904130 0.74337193 -0.50461958
vn -0.60454922 0.31706958 -0.73074422
vn 3.1608174e-3 0.95386196 0.30022887
vn 3.1608174e-3 0.95386196 -0.30022887
vn 0.30022887 0.95386196 -3.1608174e-3
vn -0.30022887 0.95386196 -3.1608174e-3
vn -3.1608174e-3 0.95386196 -0.30022887
vn -3.1608174e-3 0.95386196 0.30022887
vn -0.30022887 0.95386196 3.1608174e-3
vn 0.30022887 0.95386196 3.1608174e-3
vn 2.8857085e-3 0.95386276 0.30022909
vn 2.8857085e-3 0.95386276 -0.30022909
vn 0.30022909 0.95386276 -2.8857085e-3
vn -0.30022909 0.95386276 -2.8857085e-3
vn -2.8857085e-3 0.95386276 -0.30022909
vn -2.8857085e-3 0.95386276 0.30022909
vn -0.30022909 0.95386276 2.8857085e-3
vn 0.30022909 0.95386276 2.8857085e-3
vn 2.8857085e-3 0.95386276 0.30022909
vn 2.8857085e-3 0.95386276 -0.30022909
vn 0.30022909 0.95386276 -2.8857085e-3
vn -0.30022909 0.95386276 -2.8857085e-3
vn -2.8857085e-3 0.95386276 -0.30022909
vn -2.8857085e-3 0.95386276 0.30022909
vn -0.30022909 0.95386276 2.8857085e-3
vn 0.30022909 0.95386276 2.8857085e-3
g Cube1_default
usemtl default
s 1
f 2//2 4//4 3//3 1//1
f 10//10 24//24 23//23 9//9
f 10//10 46//46 45//45 24//24
f 10//10 70//70 69//69 46//46
f 14//14 21//21 20//20 11//11
f 14//14 40//40 39//39 21//21
f 14//14 64//64 63//63 40//40
f 15//15 18//18 17//17 12//12
f 15//15 34//34 33//33 18//18
f 15//15 56//56 55//55 34//34
f 16//16 27//27 26//26 13//13
f 16//16 52//52 51//51 27//27
f 16//16 76//76 75//75 52//52
f 17//17 50//50 49//49 12//12
f 18//18 19//19 20//20 21//21 22//22 23//23 24//24 25//25 26//26 27//27 28//28 17//17
f 18//18 33//33 30//30 19//19
f 19//19 30//30 32//32 20//20
f 20//20 32//32 31//31 11//11
f 21//21 39//39 36//36 22//22
f 22//22 36//36 38//38 23//23
f 23//23 38//38 37//37 9//9
f 24//24 45//45 42//42 25//25
f 25//25 42//42 44//44 26//26
f 26//26 44//44 43//43 13//13
f 27//27 51//51 48//48 28//28
f 28//28 48//48 50//50 17//17
f 29//29 31//31 32//32 30//30
f 29//29 54//54 58//58 31//31
f 30//30 33//33 34//34 29//29
f 31//31 58//58 57//57 11//11
f 34//34 55//55 54//54 29//29
f 35//35 37//37 38//38 36//36
f 35//35 60//60 62//62 37//37
f 36//36 39//39 40//40 35//35
f 37//37 62//62 61//61 9//9
f 40//40 63//63 60//60 35//35
f 41//41 43//43 44//44 42//42
f 41//41 66//66 68//68 43//43
f 42//42 45//45 46//46 41//41
f 43//43 68//68 67//67 13//13
f 46//46 69//69 66//66 41//41
f 47//47 49//49 50//50 48//48
f 47//47 72//72 74//74 49//49
f 48//48 51//51 52//52 47//47
f 49//49 74//74 73//73 12//12
f 52//52 75//75 72//72 47//47
f 54//54 78//78 80//80 58//58
f 55//55 81//81 78//78 54//54
f 56//56 82//82 81//81 55//55
f 58//58 80//80 79//79 57//57
f 60//60 84//84 88//88 62//62
f 62//62 88//88 87//87 61//61
f 63//63 85//85 84//84 60//60
f 64//64 86//86 85//85 63//63
f 66//66 90//90 94//94 68//68
f 68//68 94//94 93//93 67//67
f 69//69 91//91 90//90 66//66
f 70//70 92//92 91//91 69//69
f 72//72 96//96 98//98 74//74
f 74//74 98//98 97//97 73//73
f 75//75 99//99 96//96 72//72
f 76//76 100//100 99//99 75//75
f 78//78 102//102 104//104 80//80
f 80//80 104//104 103//103 79//79
f 81//81 105//105 102//102 78//78
f 82//82 106//106 105//105 81//81
f 84//84 108//108 112//112 88//88
f 85//85 109//109 108//108 84//84
f 86//86 110//110 109//109 85//85
f 88//88 112//112 111//111 87//87
f 90//90 114//114 116//116 94//94
f 91//91 117//117 114//114 90//90
f 92//92 118//118 117//117 91//91
f 94//94 116//116 115//115 93//93
f 96//96 120//120 122//122 98//98
f 98//98 122//122 121//121 97//97
f 99//99 123//123 120//120 96//96
f 100//100 124//124 123//123 99//99
f 101//101 103//103 104//104 102//102
f 102//102 105//105 106//106 101//101
f 107//107 111//111 112//112 108//108
f 108//108 109//109 110//110 107//107
f 113//113 115//115 116//116 114//114
f 114//114 117//117 118//118 113//113
f 119//119 121//121 122//122 120//120
f 120//120 123//123 124//124 119//119
g Cube1_default_CIRCUIT.png
usemtl default_CIRCUIT.png
s 1
f 53/119/53 57/133/57 79/134/79 77/120/77
f 59/121/59 61/125/61 87/126/87 83/122/83
f 65/112/65 67/62/67 93/61/93 89/111/89
f 71/114/71 73/116/73 97/115/97 95/113/95
f 77/120/77 82/118/82 56/117/56 53/119/53
f 83/122/83 86/136/86 64/135/64 59/121/59
f 89/111/89 92/109/92 70/110/70 65/112/65
f 95/113/95 100/87/100 76/88/76 71/114/71
g Cube1_default_FLOOR.png
usemtl default_FLOOR.png
s 1
f 1/56/1 5/47/5 6/74/6 2/58/2
f 2/58/2 6/74/6 8/73/8 4/57/4
f 3/55/3 7/45/7 5/47/5 1/56/1
f 4/57/4 8/73/8 7/45/7 3/55/3
f 5/47/5 141/49/141 142/72/142 6/74/6
f 6/74/6 143/86/143 144/85/144 8/73/8
f 7/45/7 147/41/147 148/42/148 5/47/5
f 8/73/8 145/69/145 146/46/146 7/45/7
f 9/66/9 126/67/126 125/53/125 10/54/10
f 11/108/11 128/100/128 127/101/127 14/107/14
f 12/52/12 130/50/130 129/65/129 15/64/15
f 13/10/13 132/19/132 131/18/131 16/9/16
f 126/67/126 134/70/134 133/51/133 125/53/125
f 128/100/128 136/92/136 135/93/135 127/101/127
f 130/50/130 138/48/138 137/68/137 129/65/129
f 132/19/132 140/29/140 139/28/139 131/18/131
f 134/70/134 142/72/142 141/49/141 133/51/133
f 136/92/136 144/85/144 143/86/143 135/93/135
f 138/48/138 146/46/146 145/69/145 137/68/137
f 140/29/140 148/42/148 147/41/147 139/28/139
g Cube1_default_WALL.png
usemtl default_WALL.png
s 1
f 5/81/5 65/94/65 70/131/70 10/129/10 125/106/125 133/102/133 141/96/141
f 6/77/6 59/89/59 64/79/64 14/60/14 127/63/127 135/71/135 143/76/143
f 7/32/7 71/23/71 76/13/76 16/17/16 131/27/131 139/30/139 147/31/147
f 8/36/8 53/26/53 56/8/56 15/6/15 129/14/129 137/16/137 145/24/145
f 77/25/77 79/33/79 103/44/103 101/38/101
f 83/90/83 87/124/87 111/128/111 107/75/107
f 89/95/89 93/105/93 115/97/115 113/78/113
f 95/22/95 97/1/97 121/3/121 119/35/119
f 101/38/101 106/5/106 82/7/82 77/25/77
f 107/75/107 110/59/110 86/80/86 83/90/83
f 113/78/113 118/130/118 92/132/92 89/95/89
f 119/35/119 124/20/124 100/12/100 95/22/95
f 142/91/142 134/99/134 126/103/126 9/127/9 61/123/61 59/89/59 6/77/6
f 144/37/144 136/39/136 128/40/128 11/43/11 57/34/57 53/26/53 8/36/8
f 146/21/146 138/15/138 130/11/130 12/4/12 73/2/73 71/23/71 7/32/7
f 148/82/148 140/83/140 132/84/132 13/98/13 67/104/67 65/94/65 5/81/5
